# xmcd
#
# Track frame offsets:
#	150
#	28941
#	58362
#	78494
#	98454
#	119154
#	142335
#	161058
#	179705
#	196791
#	216424
#	238789
#	262844
#	289127
#	312669
#
# Disc length: 4372 seconds
#
# Revision: 0
# Processed by: cddbd v1.5.1PL0 Copyright (c) Steve Scherf et al.
# Submitted via: EasyCDDAExtractor 8.2.1.1
#
DISCID=f211120f
DTITLE=Gerry Rafferty - Right Down The Line
DYEAR=1900
DGENRE=Blues
TTITLE0=Baker Street 
TTITLE1=Whatever's Written In Your Heart
TTITLE2=Bring It All Home
TTITLE3=Right Down The Line
TTITLE4=Get It Right Next Time
TTITLE5=The Way That You Do It
TTITLE6=Tired Of Talking
TTITLE7=The Garden Of England
TTITLE8=Sleepwalking
TTITLE9=Night Owl
TTITLE10=As Wise As A Serpent
TTITLE11=A Dangerous Age
TTITLE12=Family Tree
TTITLE13=Shipyard Town
TTITLE14=The Right Moment
EXTD=
EXTT0=
EXTT1=
EXTT2=
EXTT3=
EXTT4=
EXTT5=
EXTT6=
EXTT7=
EXTT8=
EXTT9=
EXTT10=
EXTT11=
EXTT12=
EXTT13=
EXTT14=
PLAYORDER=
